<svg xmlns="http://www.w3.org/2000/svg" viewBox="0 0 200 200" role="img" aria-labelledby="logoTitle logoDesc">
  <title id="logoTitle">Amis BK LLC</title>
  <desc id="logoDesc">Stylized burgundy rose with gold rim</desc>
  <circle cx="100" cy="100" r="96" fill="#ffffff"/>
  <circle cx="100" cy="100" r="90" fill="none" stroke="#c9a227" stroke-width="4"/>
  <path fill="#2f6b3a" d="M78 142c-10 10-24 16-34 18 12-16 24-24 36-28 4 2 2 6-2 10z"/>
  <path fill="#3d7a46" d="M122 142c10 10 24 16 34 18-12-16-24-24-36-28-4 2-2 6 2 10z"/>
  <path fill="#7a1f2b" d="M100 150c-22-26-44-46-44-70 0-20 16-34 36-34 8 0 16 3 22 9 6-6 14-9 22-9 20 0 36 14 36 34 0 24-22 44-44 70z"/>
  <path fill="#9c3a48" d="M100 86c8-18 24-28 40-28-4 16-16 26-32 32-4-2-8-2-8-4z"/>
  <path fill="#9c3a48" d="M100 86c-8-18-24-28-40-28 4 16 16 26 32 32 4-2 8-2 8-4z"/>
  <path fill="#f6efe2" d="M100 108c12-8 24-8 34 0-8 8-20 12-34 12s-26-4-34-12c10-8 22-8 34 0z"/>
  <circle cx="100" cy="104" r="8" fill="#c9a227"/>
</svg>
